<svg width="1876" height="685" viewBox="0 0 1876 685" fill="none" xmlns="http://www.w3.org/2000/svg">
<path d="M50.516 685L741.26 0H683.818L0.253906 685H50.516Z" fill="#0B96DB"/>
<path d="M163.965 685L854.709 0H797.266L113.703 685H163.965Z" fill="#0B96DB"/>
<path d="M277.413 685L968.157 0H910.715L227.151 685H277.413Z" fill="#0B96DB"/>
<path d="M390.862 685L1081.61 0H1024.16L340.6 685H390.862Z" fill="#0B96DB"/>
<path d="M504.311 685L1195.05 0H1137.61L454.048 685H504.311Z" fill="#0B96DB"/>
<path d="M617.759 685L1308.5 0H1251.06L567.497 685H617.759Z" fill="#0B96DB"/>
<path d="M731.208 685L1421.95 0H1364.51L680.946 685H731.208Z" fill="#0B96DB"/>
<path d="M844.656 685L1535.4 0H1477.96L794.394 685H844.656Z" fill="#0B96DB"/>
<path d="M958.105 685L1648.85 0H1591.41L907.843 685H958.105Z" fill="#0B96DB"/>
<path d="M1071.55 685L1762.3 0H1704.86L1021.29 685H1071.55Z" fill="#0B96DB"/>
<path d="M1185 685L1875.75 0H1818.3L1134.74 685H1185Z" fill="#0B96DB"/>
</svg>
