<svg width="113" height="50" viewBox="0 0 113 50" fill="none" xmlns="http://www.w3.org/2000/svg">
<path d="M102 50L113 32H102V50Z" fill="#6BC3A4"/>
<path d="M0 4C0 1.79086 1.79086 0 4 0H109C111.209 0 113 1.79086 113 4V32H4C1.79086 32 0 30.2091 0 28V4Z" fill="url(#paint0_linear_1_4581)"/>
<path d="M26.254 21V11.158H28.13V21H26.254ZM24.322 12.81V11.158H27.99V12.81H24.322ZM34.0686 21.14C33.294 21.14 32.594 20.93 31.9686 20.51C31.3433 20.09 30.844 19.4973 30.4706 18.732C30.1066 17.9667 29.9246 17.0753 29.9246 16.058C29.9246 15.0407 30.1066 14.154 30.4706 13.398C30.8346 12.642 31.3246 12.054 31.9406 11.634C32.566 11.214 33.2613 11.004 34.0266 11.004C34.8106 11.004 35.5106 11.214 36.1266 11.634C36.752 12.054 37.2466 12.6467 37.6106 13.412C37.9746 14.168 38.1566 15.0593 38.1566 16.086C38.1566 17.1033 37.9746 17.9947 37.6106 18.76C37.2466 19.516 36.7566 20.104 36.1406 20.524C35.5246 20.9347 34.834 21.14 34.0686 21.14ZM34.0406 19.418C34.4886 19.418 34.876 19.292 35.2026 19.04C35.5293 18.788 35.7813 18.4147 35.9586 17.92C36.1453 17.4253 36.2386 16.8093 36.2386 16.072C36.2386 15.3347 36.1453 14.7187 35.9586 14.224C35.7813 13.7293 35.5246 13.3607 35.1886 13.118C34.862 12.866 34.4746 12.74 34.0266 12.74C33.588 12.74 33.2053 12.866 32.8786 13.118C32.552 13.3607 32.2953 13.7293 32.1086 14.224C31.9313 14.7093 31.8426 15.3207 31.8426 16.058C31.8426 16.8047 31.9313 17.4253 32.1086 17.92C32.2953 18.4147 32.552 18.788 32.8786 19.04C33.2053 19.292 33.5926 19.418 34.0406 19.418ZM43.5908 21.14C42.8161 21.14 42.1161 20.93 41.4908 20.51C40.8655 20.09 40.3661 19.4973 39.9928 18.732C39.6288 17.9667 39.4468 17.0753 39.4468 16.058C39.4468 15.0407 39.6288 14.154 39.9928 13.398C40.3568 12.642 40.8468 12.054 41.4628 11.634C42.0881 11.214 42.7835 11.004 43.5488 11.004C44.3328 11.004 45.0328 11.214 45.6488 11.634C46.2741 12.054 46.7688 12.6467 47.1328 13.412C47.4968 14.168 47.6788 15.0593 47.6788 16.086C47.6788 17.1033 47.4968 17.9947 47.1328 18.76C46.7688 19.516 46.2788 20.104 45.6628 20.524C45.0468 20.9347 44.3561 21.14 43.5908 21.14ZM43.5628 19.418C44.0108 19.418 44.3981 19.292 44.7248 19.04C45.0515 18.788 45.3035 18.4147 45.4808 17.92C45.6675 17.4253 45.7608 16.8093 45.7608 16.072C45.7608 15.3347 45.6675 14.7187 45.4808 14.224C45.3035 13.7293 45.0468 13.3607 44.7108 13.118C44.3841 12.866 43.9968 12.74 43.5488 12.74C43.1101 12.74 42.7275 12.866 42.4008 13.118C42.0741 13.3607 41.8175 13.7293 41.6308 14.224C41.4535 14.7093 41.3648 15.3207 41.3648 16.058C41.3648 16.8047 41.4535 17.4253 41.6308 17.92C41.8175 18.4147 42.0741 18.788 42.4008 19.04C42.7275 19.292 43.1148 19.418 43.5628 19.418ZM49.249 21L55.353 11.158H57.089L50.985 21H49.249ZM55.311 21.14C54.9377 21.14 54.597 21.0513 54.289 20.874C53.981 20.6873 53.7337 20.4447 53.547 20.146C53.3697 19.838 53.281 19.4927 53.281 19.11C53.281 18.7273 53.3697 18.3867 53.547 18.088C53.7337 17.7893 53.9763 17.5513 54.275 17.374C54.583 17.1873 54.9283 17.094 55.311 17.094C55.6937 17.094 56.039 17.1873 56.347 17.374C56.655 17.5513 56.8977 17.7893 57.075 18.088C57.2617 18.3867 57.355 18.7273 57.355 19.11C57.355 19.4927 57.2617 19.838 57.075 20.146C56.8977 20.4447 56.655 20.6873 56.347 20.874C56.0483 21.0513 55.703 21.14 55.311 21.14ZM55.311 19.81C55.5163 19.81 55.6843 19.7447 55.815 19.614C55.9457 19.4833 56.011 19.3153 56.011 19.11C56.011 18.914 55.941 18.7507 55.801 18.62C55.6703 18.4893 55.507 18.424 55.311 18.424C55.115 18.424 54.9517 18.4893 54.821 18.62C54.6997 18.7507 54.639 18.914 54.639 19.11C54.639 19.3153 54.6997 19.4833 54.821 19.614C54.9517 19.7447 55.115 19.81 55.311 19.81ZM50.999 15.064C50.635 15.064 50.2943 14.9753 49.977 14.798C49.669 14.6113 49.4263 14.364 49.249 14.056C49.0717 13.748 48.983 13.4073 48.983 13.034C48.983 12.6513 49.0717 12.3107 49.249 12.012C49.4263 11.7133 49.669 11.4753 49.977 11.298C50.285 11.1113 50.6257 11.018 50.999 11.018C51.3817 11.018 51.727 11.1113 52.035 11.298C52.3523 11.4753 52.5997 11.7133 52.777 12.012C52.9543 12.3107 53.043 12.6513 53.043 13.034C53.043 13.4073 52.9497 13.748 52.763 14.056C52.5857 14.364 52.343 14.6113 52.035 14.798C51.7363 14.9753 51.391 15.064 50.999 15.064ZM50.999 13.734C51.2137 13.734 51.3817 13.6687 51.503 13.538C51.6243 13.4073 51.685 13.2393 51.685 13.034C51.685 12.8287 51.6197 12.6607 51.489 12.53C51.3677 12.3993 51.2043 12.334 50.999 12.334C50.803 12.334 50.6443 12.3993 50.523 12.53C50.4017 12.6607 50.341 12.8287 50.341 13.034C50.341 13.2393 50.4017 13.4073 50.523 13.538C50.6443 13.6687 50.803 13.734 50.999 13.734ZM62.86 21V13.51C62.86 12.9687 62.9766 12.4927 63.21 12.082C63.4433 11.662 63.7746 11.3307 64.204 11.088C64.6333 10.8453 65.1373 10.724 65.716 10.724C66.1546 10.724 66.5326 10.7987 66.85 10.948C67.1673 11.0973 67.452 11.3027 67.704 11.564L66.542 12.74C66.4393 12.6373 66.3273 12.558 66.206 12.502C66.0846 12.446 65.9306 12.418 65.744 12.418C65.408 12.418 65.1466 12.5113 64.96 12.698C64.7826 12.8753 64.694 13.132 64.694 13.468V21H62.86ZM61.292 15.848V14.238H66.696V15.848H61.292ZM67.8631 21V14.238H69.6971V21H67.8631ZM69.6971 17.262L68.9831 16.786C69.0671 15.9553 69.3098 15.302 69.7111 14.826C70.1124 14.3407 70.6911 14.098 71.4471 14.098C71.7738 14.098 72.0678 14.154 72.3291 14.266C72.5904 14.3687 72.8284 14.5413 73.0431 14.784L71.8951 16.1C71.7924 15.988 71.6664 15.904 71.5171 15.848C71.3771 15.792 71.2138 15.764 71.0271 15.764C70.6351 15.764 70.3131 15.89 70.0611 16.142C69.8184 16.3847 69.6971 16.758 69.6971 17.262ZM77.0099 21.14C76.3006 21.14 75.6706 20.9907 75.1199 20.692C74.5692 20.384 74.1306 19.964 73.8039 19.432C73.4866 18.9 73.3279 18.2933 73.3279 17.612C73.3279 16.94 73.4819 16.3427 73.7899 15.82C74.1072 15.288 74.5366 14.868 75.0779 14.56C75.6192 14.2427 76.2212 14.084 76.8839 14.084C77.5372 14.084 78.1112 14.2333 78.6059 14.532C79.1099 14.8213 79.5019 15.2227 79.7819 15.736C80.0712 16.24 80.2159 16.814 80.2159 17.458C80.2159 17.5793 80.2066 17.7053 80.1879 17.836C80.1786 17.9573 80.1552 18.0973 80.1179 18.256L74.4339 18.27V16.898L79.2639 16.884L78.5219 17.458C78.5032 17.0567 78.4286 16.7207 78.2979 16.45C78.1766 16.1793 77.9946 15.974 77.7519 15.834C77.5186 15.6847 77.2292 15.61 76.8839 15.61C76.5199 15.61 76.2026 15.694 75.9319 15.862C75.6612 16.0207 75.4512 16.2493 75.3019 16.548C75.1619 16.8373 75.0919 17.1827 75.0919 17.584C75.0919 17.9947 75.1666 18.354 75.3159 18.662C75.4746 18.9607 75.6986 19.194 75.9879 19.362C76.2772 19.5207 76.6132 19.6 76.9959 19.6C77.3412 19.6 77.6539 19.544 77.9339 19.432C78.2139 19.3107 78.4566 19.1333 78.6619 18.9L79.7399 19.978C79.4132 20.3607 79.0119 20.65 78.5359 20.846C78.0692 21.042 77.5606 21.14 77.0099 21.14ZM84.8641 21.14C84.1548 21.14 83.5248 20.9907 82.9741 20.692C82.4235 20.384 81.9848 19.964 81.6581 19.432C81.3408 18.9 81.1821 18.2933 81.1821 17.612C81.1821 16.94 81.3361 16.3427 81.6441 15.82C81.9615 15.288 82.3908 14.868 82.9321 14.56C83.4735 14.2427 84.0755 14.084 84.7381 14.084C85.3915 14.084 85.9655 14.2333 86.4601 14.532C86.9641 14.8213 87.3561 15.2227 87.6361 15.736C87.9255 16.24 88.0701 16.814 88.0701 17.458C88.0701 17.5793 88.0608 17.7053 88.0421 17.836C88.0328 17.9573 88.0095 18.0973 87.9721 18.256L82.2881 18.27V16.898L87.1181 16.884L86.3761 17.458C86.3575 17.0567 86.2828 16.7207 86.1521 16.45C86.0308 16.1793 85.8488 15.974 85.6061 15.834C85.3728 15.6847 85.0835 15.61 84.7381 15.61C84.3741 15.61 84.0568 15.694 83.7861 15.862C83.5155 16.0207 83.3055 16.2493 83.1561 16.548C83.0161 16.8373 82.9461 17.1827 82.9461 17.584C82.9461 17.9947 83.0208 18.354 83.1701 18.662C83.3288 18.9607 83.5528 19.194 83.8421 19.362C84.1315 19.5207 84.4675 19.6 84.8501 19.6C85.1955 19.6 85.5081 19.544 85.7881 19.432C86.0681 19.3107 86.3108 19.1333 86.5161 18.9L87.5941 19.978C87.2675 20.3607 86.8661 20.65 86.3901 20.846C85.9235 21.042 85.4148 21.14 84.8641 21.14Z" fill="white"/>
<defs>
<linearGradient id="paint0_linear_1_4581" x1="0" y1="16" x2="113" y2="16" gradientUnits="userSpaceOnUse">
<stop stop-color="#0B96DB"/>
<stop offset="1" stop-color="#9DFF89"/>
</linearGradient>
</defs>
</svg>
