<svg width="449" height="360" viewBox="0 0 449 360" fill="none" xmlns="http://www.w3.org/2000/svg">
<path opacity="0.2" fill-rule="evenodd" clip-rule="evenodd" d="M387.895 130.226C406.966 172.568 466.026 213.409 443.717 254.137C420.16 297.144 349.282 267.004 303.439 284.41C272.231 296.26 254.005 328.937 221.972 338.334C178.269 351.155 126.09 373.736 88.9848 347.324C52.146 321.101 68.9419 262.438 54.9449 219.44C39.7468 172.752 -11.2866 131.98 3.65973 85.2115C18.527 38.6905 76.5967 21.8056 122.986 6.53344C160.739 -5.89566 199.828 2.98886 239.302 7.63326C275.789 11.9262 315.561 9.14485 343.9 32.5253C372.141 55.8253 372.859 96.8437 387.895 130.226Z" fill="#47B1E5"/>
</svg>
