<svg width="110" height="50" viewBox="0 0 110 50" fill="none" xmlns="http://www.w3.org/2000/svg">
<path d="M0 4C0 1.79086 1.79086 0 4 0H106C108.209 0 110 1.79086 110 4V32H4C1.79086 32 0 30.2091 0 28V4Z" fill="#747C8E"/>
<path d="M25.008 21V11.158H26.338L26.912 13.062V21H25.008ZM31.812 21L25.974 13.44L26.338 11.158L32.176 18.718L31.812 21ZM31.812 21L31.266 19.152V11.158H33.184V21H31.812ZM38.4419 21.14C37.7605 21.14 37.1445 20.986 36.5939 20.678C36.0525 20.3607 35.6185 19.936 35.2919 19.404C34.9745 18.8627 34.8159 18.2607 34.8159 17.598C34.8159 16.9353 34.9745 16.3427 35.2919 15.82C35.6092 15.288 36.0432 14.868 36.5939 14.56C37.1445 14.2427 37.7559 14.084 38.4279 14.084C39.1185 14.084 39.7345 14.2427 40.2759 14.56C40.8265 14.868 41.2605 15.288 41.5779 15.82C41.8952 16.3427 42.0539 16.9353 42.0539 17.598C42.0539 18.2607 41.8952 18.8627 41.5779 19.404C41.2605 19.936 40.8265 20.3607 40.2759 20.678C39.7345 20.986 39.1232 21.14 38.4419 21.14ZM38.4279 19.432C38.7732 19.432 39.0765 19.3573 39.3379 19.208C39.6085 19.0493 39.8139 18.8347 39.9539 18.564C40.1032 18.284 40.1779 17.9667 40.1779 17.612C40.1779 17.2573 40.1032 16.9447 39.9539 16.674C39.8045 16.4033 39.5992 16.1933 39.3379 16.044C39.0765 15.8853 38.7732 15.806 38.4279 15.806C38.0919 15.806 37.7932 15.8853 37.5319 16.044C37.2705 16.1933 37.0652 16.4033 36.9159 16.674C36.7665 16.9447 36.6919 17.2573 36.6919 17.612C36.6919 17.9667 36.7665 18.284 36.9159 18.564C37.0652 18.8347 37.2705 19.0493 37.5319 19.208C37.7932 19.3573 38.0919 19.432 38.4279 19.432ZM46.529 21V14.238H48.377V21H46.529ZM47.453 13.146C47.1543 13.146 46.907 13.048 46.711 12.852C46.515 12.6467 46.417 12.3947 46.417 12.096C46.417 11.8067 46.515 11.5593 46.711 11.354C46.907 11.1487 47.1543 11.046 47.453 11.046C47.761 11.046 48.0083 11.1487 48.195 11.354C48.391 11.5593 48.489 11.8067 48.489 12.096C48.489 12.3947 48.391 12.6467 48.195 12.852C48.0083 13.048 47.761 13.146 47.453 13.146ZM54.8316 21V17.122C54.8316 16.7207 54.7056 16.394 54.4536 16.142C54.2016 15.89 53.8749 15.764 53.4736 15.764C53.2123 15.764 52.9789 15.82 52.7736 15.932C52.5683 16.044 52.4049 16.2027 52.2836 16.408C52.1716 16.6133 52.1156 16.8513 52.1156 17.122L51.4016 16.758C51.4016 16.226 51.5136 15.764 51.7376 15.372C51.9709 14.9707 52.2883 14.658 52.6896 14.434C53.1003 14.21 53.5623 14.098 54.0756 14.098C54.5703 14.098 55.0136 14.224 55.4056 14.476C55.7976 14.7187 56.1056 15.0407 56.3296 15.442C56.5536 15.834 56.6656 16.2587 56.6656 16.716V21H54.8316ZM50.2816 21V14.238H52.1156V21H50.2816ZM60.7469 21.154C60.3643 21.154 59.9863 21.1027 59.6129 21C59.2489 20.8973 58.9129 20.7573 58.6049 20.58C58.2969 20.3933 58.0309 20.1693 57.8069 19.908L58.8989 18.802C59.1323 19.0633 59.4029 19.2593 59.7109 19.39C60.0189 19.5207 60.3596 19.586 60.7329 19.586C61.0316 19.586 61.2556 19.544 61.4049 19.46C61.5636 19.376 61.6429 19.25 61.6429 19.082C61.6429 18.8953 61.5589 18.7507 61.3909 18.648C61.2323 18.5453 61.0223 18.4613 60.7609 18.396C60.4996 18.3213 60.2243 18.242 59.9349 18.158C59.6549 18.0647 59.3843 17.948 59.1229 17.808C58.8616 17.6587 58.6469 17.458 58.4789 17.206C58.3203 16.9447 58.2409 16.6087 58.2409 16.198C58.2409 15.7687 58.3436 15.3953 58.5489 15.078C58.7636 14.7607 59.0669 14.5133 59.4589 14.336C59.8509 14.1587 60.3129 14.07 60.8449 14.07C61.4049 14.07 61.9089 14.168 62.3569 14.364C62.8143 14.56 63.1923 14.854 63.4909 15.246L62.3849 16.352C62.1796 16.1 61.9463 15.918 61.6849 15.806C61.4329 15.694 61.1576 15.638 60.8589 15.638C60.5883 15.638 60.3783 15.68 60.2289 15.764C60.0889 15.848 60.0189 15.9647 60.0189 16.114C60.0189 16.282 60.0983 16.4127 60.2569 16.506C60.4249 16.5993 60.6396 16.6833 60.9009 16.758C61.1623 16.8233 61.4329 16.9027 61.7129 16.996C62.0023 17.08 62.2729 17.2013 62.5249 17.36C62.7863 17.5187 62.9963 17.7287 63.1549 17.99C63.3229 18.2513 63.4069 18.5873 63.4069 18.998C63.4069 19.6607 63.1689 20.188 62.6929 20.58C62.2169 20.9627 61.5683 21.154 60.7469 21.154ZM65.9176 21V11.424H67.7516V21H65.9176ZM64.3356 15.848V14.238H69.3336V15.848H64.3356ZM73.309 21.14C72.693 21.14 72.1377 20.986 71.643 20.678C71.1483 20.37 70.761 19.95 70.481 19.418C70.201 18.886 70.061 18.2887 70.061 17.626C70.061 16.954 70.201 16.352 70.481 15.82C70.761 15.288 71.1483 14.868 71.643 14.56C72.1377 14.252 72.693 14.098 73.309 14.098C73.7943 14.098 74.2283 14.196 74.611 14.392C74.9937 14.588 75.297 14.8633 75.521 15.218C75.7543 15.5633 75.8803 15.9553 75.899 16.394V18.83C75.8803 19.278 75.7543 19.6747 75.521 20.02C75.297 20.3653 74.9937 20.6407 74.611 20.846C74.2283 21.042 73.7943 21.14 73.309 21.14ZM73.645 19.446C74.1583 19.446 74.5737 19.278 74.891 18.942C75.2083 18.5967 75.367 18.1533 75.367 17.612C75.367 17.2573 75.2923 16.9447 75.143 16.674C75.003 16.394 74.8023 16.1793 74.541 16.03C74.289 15.8713 73.9903 15.792 73.645 15.792C73.309 15.792 73.0103 15.8713 72.749 16.03C72.497 16.1793 72.2963 16.394 72.147 16.674C72.007 16.9447 71.937 17.2573 71.937 17.612C71.937 17.976 72.007 18.298 72.147 18.578C72.2963 18.8487 72.497 19.0633 72.749 19.222C73.0103 19.3713 73.309 19.446 73.645 19.446ZM75.269 21V19.18L75.563 17.528L75.269 15.904V14.238H77.089V21H75.269ZM78.9915 21V10.878H80.8255V21H78.9915ZM82.7304 21V10.878H84.5644V21H82.7304Z" fill="white"/>
<path d="M99 50L110 32H99V50Z" fill="#525863"/>
</svg>
