<svg width="313" height="176" viewBox="0 0 313 176" fill="none" xmlns="http://www.w3.org/2000/svg">
<g opacity="0.3">
<circle cx="8.05421" cy="7.60976" r="7.60976" fill="#0B96DB"/>
<circle cx="30.8834" cy="7.60976" r="7.60976" fill="#0B96DB"/>
<circle cx="53.7128" cy="7.60976" r="7.60976" fill="#0B96DB"/>
<circle cx="76.542" cy="7.60976" r="7.60976" fill="#0B96DB"/>
<circle cx="99.3712" cy="7.60976" r="7.60976" fill="#0B96DB"/>
<circle cx="122.201" cy="7.60976" r="7.60976" fill="#0B96DB"/>
<circle cx="145.03" cy="7.60976" r="7.60976" fill="#0B96DB"/>
<circle cx="167.859" cy="7.60976" r="7.60976" fill="#0B96DB"/>
<circle cx="190.688" cy="7.60976" r="7.60976" fill="#0B96DB"/>
<circle cx="213.518" cy="7.60976" r="7.60976" fill="#0B96DB"/>
<circle cx="236.347" cy="7.60976" r="7.60976" fill="#0B96DB"/>
<circle cx="259.176" cy="7.60976" r="7.60976" fill="#0B96DB"/>
<circle cx="282.005" cy="7.60976" r="7.60976" fill="#0B96DB"/>
<circle cx="304.835" cy="7.60976" r="7.60976" fill="#0B96DB"/>
<circle cx="8.05421" cy="30.439" r="7.60976" fill="#0B96DB"/>
<circle cx="30.8834" cy="30.439" r="7.60976" fill="#0B96DB"/>
<circle cx="53.7128" cy="30.439" r="7.60976" fill="#0B96DB"/>
<circle cx="76.542" cy="30.439" r="7.60976" fill="#0B96DB"/>
<circle cx="99.3712" cy="30.439" r="7.60976" fill="#0B96DB"/>
<circle cx="122.201" cy="30.439" r="7.60976" fill="#0B96DB"/>
<circle cx="145.03" cy="30.439" r="7.60976" fill="#0B96DB"/>
<circle cx="167.859" cy="30.439" r="7.60976" fill="#0B96DB"/>
<circle cx="190.688" cy="30.439" r="7.60976" fill="#0B96DB"/>
<circle cx="213.518" cy="30.439" r="7.60976" fill="#0B96DB"/>
<circle cx="236.347" cy="30.439" r="7.60976" fill="#0B96DB"/>
<circle cx="259.176" cy="30.439" r="7.60976" fill="#0B96DB"/>
<circle cx="282.005" cy="30.439" r="7.60976" fill="#0B96DB"/>
<circle cx="304.835" cy="30.439" r="7.60976" fill="#0B96DB"/>
<circle cx="8.05421" cy="53.2683" r="7.60976" fill="#0B96DB"/>
<circle cx="30.8834" cy="53.2683" r="7.60976" fill="#0B96DB"/>
<circle cx="53.7128" cy="53.2683" r="7.60976" fill="#0B96DB"/>
<circle cx="76.542" cy="53.2683" r="7.60976" fill="#0B96DB"/>
<circle cx="99.3712" cy="53.2683" r="7.60976" fill="#0B96DB"/>
<circle cx="122.201" cy="53.2683" r="7.60976" fill="#0B96DB"/>
<circle cx="145.03" cy="53.2683" r="7.60976" fill="#0B96DB"/>
<circle cx="167.859" cy="53.2683" r="7.60976" fill="#0B96DB"/>
<circle cx="190.688" cy="53.2683" r="7.60976" fill="#0B96DB"/>
<circle cx="213.518" cy="53.2683" r="7.60976" fill="#0B96DB"/>
<circle cx="236.347" cy="53.2683" r="7.60976" fill="#0B96DB"/>
<circle cx="259.176" cy="53.2683" r="7.60976" fill="#0B96DB"/>
<circle cx="282.005" cy="53.2683" r="7.60976" fill="#0B96DB"/>
<circle cx="304.835" cy="53.2683" r="7.60976" fill="#0B96DB"/>
<circle cx="8.05421" cy="76.0975" r="7.60976" fill="#0B96DB"/>
<circle cx="30.8834" cy="76.0975" r="7.60976" fill="#0B96DB"/>
<circle cx="53.7128" cy="76.0975" r="7.60976" fill="#0B96DB"/>
<circle cx="76.542" cy="76.0975" r="7.60976" fill="#0B96DB"/>
<circle cx="99.3712" cy="76.0975" r="7.60976" fill="#0B96DB"/>
<circle cx="122.201" cy="76.0975" r="7.60976" fill="#0B96DB"/>
<circle cx="145.03" cy="76.0975" r="7.60976" fill="#0B96DB"/>
<circle cx="167.859" cy="76.0975" r="7.60976" fill="#0B96DB"/>
<circle cx="190.688" cy="76.0975" r="7.60976" fill="#0B96DB"/>
<circle cx="213.518" cy="76.0975" r="7.60976" fill="#0B96DB"/>
<circle cx="236.347" cy="76.0975" r="7.60976" fill="#0B96DB"/>
<circle cx="259.176" cy="76.0975" r="7.60976" fill="#0B96DB"/>
<circle cx="282.005" cy="76.0975" r="7.60976" fill="#0B96DB"/>
<circle cx="304.835" cy="76.0975" r="7.60976" fill="#0B96DB"/>
<circle cx="8.05421" cy="98.9268" r="7.60976" fill="#0B96DB"/>
<circle cx="30.8834" cy="98.9268" r="7.60976" fill="#0B96DB"/>
<circle cx="53.7128" cy="98.9268" r="7.60976" fill="#0B96DB"/>
<circle cx="76.542" cy="98.9268" r="7.60976" fill="#0B96DB"/>
<circle cx="99.3712" cy="98.9268" r="7.60976" fill="#0B96DB"/>
<circle cx="122.201" cy="98.9268" r="7.60976" fill="#0B96DB"/>
<circle cx="145.03" cy="98.9268" r="7.60976" fill="#0B96DB"/>
<circle cx="167.859" cy="98.9268" r="7.60976" fill="#0B96DB"/>
<circle cx="190.688" cy="98.9268" r="7.60976" fill="#0B96DB"/>
<circle cx="213.518" cy="98.9268" r="7.60976" fill="#0B96DB"/>
<circle cx="236.347" cy="98.9268" r="7.60976" fill="#0B96DB"/>
<circle cx="259.176" cy="98.9268" r="7.60976" fill="#0B96DB"/>
<circle cx="282.005" cy="98.9268" r="7.60976" fill="#0B96DB"/>
<circle cx="304.835" cy="98.9268" r="7.60976" fill="#0B96DB"/>
<circle cx="8.05421" cy="121.756" r="7.60976" fill="#0B96DB"/>
<circle cx="30.8834" cy="121.756" r="7.60976" fill="#0B96DB"/>
<circle cx="53.7128" cy="121.756" r="7.60976" fill="#0B96DB"/>
<circle cx="76.542" cy="121.756" r="7.60976" fill="#0B96DB"/>
<circle cx="99.3712" cy="121.756" r="7.60976" fill="#0B96DB"/>
<circle cx="122.201" cy="121.756" r="7.60976" fill="#0B96DB"/>
<circle cx="145.03" cy="121.756" r="7.60976" fill="#0B96DB"/>
<circle cx="167.859" cy="121.756" r="7.60976" fill="#0B96DB"/>
<circle cx="190.688" cy="121.756" r="7.60976" fill="#0B96DB"/>
<circle cx="213.518" cy="121.756" r="7.60976" fill="#0B96DB"/>
<circle cx="236.347" cy="121.756" r="7.60976" fill="#0B96DB"/>
<circle cx="259.176" cy="121.756" r="7.60976" fill="#0B96DB"/>
<circle cx="282.005" cy="121.756" r="7.60976" fill="#0B96DB"/>
<circle cx="304.835" cy="121.756" r="7.60976" fill="#0B96DB"/>
<circle cx="8.05421" cy="144.585" r="7.60976" fill="#0B96DB"/>
<circle cx="30.8834" cy="144.585" r="7.60976" fill="#0B96DB"/>
<circle cx="53.7128" cy="144.585" r="7.60976" fill="#0B96DB"/>
<circle cx="76.542" cy="144.585" r="7.60976" fill="#0B96DB"/>
<circle cx="99.3712" cy="144.585" r="7.60976" fill="#0B96DB"/>
<circle cx="122.201" cy="144.585" r="7.60976" fill="#0B96DB"/>
<circle cx="145.03" cy="144.585" r="7.60976" fill="#0B96DB"/>
<circle cx="167.859" cy="144.585" r="7.60976" fill="#0B96DB"/>
<circle cx="190.688" cy="144.585" r="7.60976" fill="#0B96DB"/>
<circle cx="213.518" cy="144.585" r="7.60976" fill="#0B96DB"/>
<circle cx="236.347" cy="144.585" r="7.60976" fill="#0B96DB"/>
<circle cx="259.176" cy="144.585" r="7.60976" fill="#0B96DB"/>
<circle cx="282.005" cy="144.585" r="7.60976" fill="#0B96DB"/>
<circle cx="304.835" cy="144.585" r="7.60976" fill="#0B96DB"/>
<circle cx="8.05421" cy="167.415" r="7.60976" fill="#0B96DB"/>
<circle cx="30.8834" cy="167.415" r="7.60976" fill="#0B96DB"/>
<circle cx="53.7128" cy="167.415" r="7.60976" fill="#0B96DB"/>
<circle cx="76.542" cy="167.415" r="7.60976" fill="#0B96DB"/>
<circle cx="99.3712" cy="167.415" r="7.60976" fill="#0B96DB"/>
<circle cx="122.201" cy="167.415" r="7.60976" fill="#0B96DB"/>
<circle cx="145.03" cy="167.415" r="7.60976" fill="#0B96DB"/>
<circle cx="167.859" cy="167.415" r="7.60976" fill="#0B96DB"/>
<circle cx="190.688" cy="167.415" r="7.60976" fill="#0B96DB"/>
<circle cx="213.518" cy="167.415" r="7.60976" fill="#0B96DB"/>
<circle cx="236.347" cy="167.415" r="7.60976" fill="#0B96DB"/>
<circle cx="259.176" cy="167.415" r="7.60976" fill="#0B96DB"/>
<circle cx="282.005" cy="167.415" r="7.60976" fill="#0B96DB"/>
<circle cx="304.835" cy="167.415" r="7.60976" fill="#0B96DB"/>
</g>
</svg>
