<svg width="1920" height="586" viewBox="0 0 1920 586" fill="none" xmlns="http://www.w3.org/2000/svg">
    <path d="M1928.5 611.5H1064L1060.09 595.452L1146.97 550.452L1149.05 549.377L1151.38 549.515L1289.49 557.667V532.389L1298.51 532.937L1448.23 542.033L1436.08 506.686L1433.12 498.079L1441.91 495.713L1686.76 429.792L1688.6 429.298L1690.47 429.634C1724.18 435.682 1776.18 444.814 1822.59 452.55C1869.4 460.351 1909.58 466.561 1920.35 467.007L1928.5 467.345V611.5Z" fill="#60B4DE" stroke="white" stroke-width="17"/>
    <path d="M245.515 -8.5L243.312 1.78125L223.476 94.3457L288.464 141.1L292.913 144.301L291.833 149.675L272.21 247.299L307.748 389.945L308.372 392.45L307.497 394.879L271.497 494.879L270.666 497.188L268.731 498.699L163.731 580.699L156.223 586.563L151.25 578.438L76.3916 456.12L-2.61426 430.588L-8.5 428.686V-8.5H245.515Z" fill="#60B4DE" stroke="white" stroke-width="17"/>
    <path d="M1928.5 -8.5V385.95L1915.08 376.433L1872.08 345.933L1868.84 343.634L1868.53 339.672L1859.93 231.21L1746.54 180.766L1742.24 178.853L1741.58 174.191L1734.62 125H1577.22L1574.88 120.272L1551.8 73.6611L1498.23 84.8213L1493.94 85.7158L1490.72 82.7324L1408.22 6.23242L1392.33 -8.5H1928.5Z" fill="#60B4DE" stroke="white" stroke-width="17"/>
</svg>
