<svg width="31" height="37" viewBox="0 0 31 37" fill="none" xmlns="http://www.w3.org/2000/svg">
<path d="M30.5 18.6665V31.0565C30.5 31.3922 30.4323 31.7245 30.3011 32.0335C30.1699 32.3425 29.9778 32.622 29.7362 32.8551C29.4947 33.0883 29.2086 33.2704 28.8951 33.3906C28.5817 33.5108 28.2472 33.5667 27.9117 33.5548L27.69 33.5365L15.5 32.0131V18.6665H30.5ZM12.1667 18.6665V31.5965L3.42 30.5031C2.61367 30.4024 1.87193 30.0105 1.3342 29.4013C0.796482 28.7921 0.499823 28.0074 0.5 27.1948V18.6665H12.1667ZM27.69 0.463131C28.0231 0.421515 28.3612 0.447418 28.6841 0.539297C29.007 0.631175 29.3081 0.787146 29.5694 0.997906C29.8307 1.20867 30.0469 1.4699 30.2051 1.76602C30.3632 2.06214 30.4601 2.38708 30.49 2.72146L30.5 2.94313V15.3331H15.5V1.98646L27.69 0.463131ZM12.1667 2.40313V15.3331H0.5V6.8048C0.499823 5.9922 0.796482 5.20753 1.3342 4.59829C1.87193 3.98906 2.61367 3.59723 3.42 3.49646L12.1667 2.40313Z" fill="white"/>
</svg>
